<mxfile host="app.diagrams.net" modified="2023-06-15T22:50:04.878Z" agent="Mozilla/5.0 (Windows NT 10.0; Win64; x64; rv:109.0) Gecko/20100101 Firefox/112.0" etag="BuSqtnf3CTCkbGJWWykN" version="21.3.8" type="github">
  <diagram name="第 1 页" id="JgQmg0oJojlUXeKX5qxb">
    <mxGraphModel dx="1647" dy="893" grid="1" gridSize="10" guides="1" tooltips="1" connect="1" arrows="1" fold="1" page="1" pageScale="1" pageWidth="1169" pageHeight="827" math="0" shadow="0">
      <root>
        <mxCell id="0" />
        <mxCell id="1" parent="0" />
        <mxCell id="6OuqwNL-lOStxpAFwUeE-1" value="" style="rounded=0;whiteSpace=wrap;html=1;fillColor=#6a00ff;fontColor=#ffffff;strokeColor=#3700CC;" vertex="1" parent="1">
          <mxGeometry width="1169" height="827" as="geometry" />
        </mxCell>
        <mxCell id="6OuqwNL-lOStxpAFwUeE-2" value="" style="rounded=0;whiteSpace=wrap;html=1;" vertex="1" parent="1">
          <mxGeometry y="110" width="1169" height="727" as="geometry" />
        </mxCell>
        <mxCell id="6OuqwNL-lOStxpAFwUeE-3" value="管理员控制面板" style="text;strokeColor=none;align=left;fillColor=none;html=1;verticalAlign=middle;whiteSpace=wrap;rounded=0;fontSize=24;fontColor=#F2F2F2;" vertex="1" parent="1">
          <mxGeometry x="20" y="40" width="250" height="30" as="geometry" />
        </mxCell>
        <mxCell id="6OuqwNL-lOStxpAFwUeE-4" value="Notifications" style="html=1;shadow=0;dashed=0;shape=mxgraph.bootstrap.rrect;rSize=5;strokeWidth=1;whiteSpace=wrap;align=left;verticalAlign=middle;spacingLeft=10;fontStyle=0;fontSize=14;fillColor=#dae8fc;strokeColor=#6c8ebf;" vertex="1" parent="1">
          <mxGeometry x="1020" y="30" width="130" height="40" as="geometry" />
        </mxCell>
        <mxCell id="6OuqwNL-lOStxpAFwUeE-5" value="4" style="html=1;shadow=0;dashed=0;shape=mxgraph.bootstrap.rrect;rSize=5;strokeColor=none;strokeWidth=1;fillColor=#ffffff;fontColor=#000000;whiteSpace=wrap;align=center;verticalAlign=middle;fontSize=12;" vertex="1" parent="6OuqwNL-lOStxpAFwUeE-4">
          <mxGeometry x="1" y="0.5" width="20" height="20" relative="1" as="geometry">
            <mxPoint x="-30" y="-10" as="offset" />
          </mxGeometry>
        </mxCell>
        <mxCell id="6OuqwNL-lOStxpAFwUeE-6" value="晚上好，管理员" style="text;strokeColor=none;align=left;fillColor=none;html=1;verticalAlign=middle;whiteSpace=wrap;rounded=0;fontSize=12;fontColor=#F2F2F2;" vertex="1" parent="1">
          <mxGeometry x="919" y="35" width="250" height="30" as="geometry" />
        </mxCell>
        <mxCell id="6OuqwNL-lOStxpAFwUeE-9" value="您好，管理员" style="text;strokeColor=none;align=left;fillColor=none;html=1;verticalAlign=middle;whiteSpace=wrap;rounded=0;fontSize=24;" vertex="1" parent="1">
          <mxGeometry x="60" y="170" width="250" height="30" as="geometry" />
        </mxCell>
        <mxCell id="6OuqwNL-lOStxpAFwUeE-15" value="该系统已经运行了1d,2h,3m。下一次例行维护：10d" style="text;strokeColor=none;align=left;fillColor=none;html=1;verticalAlign=middle;whiteSpace=wrap;rounded=0;fontSize=24;" vertex="1" parent="1">
          <mxGeometry x="60" y="190" width="570" height="60" as="geometry" />
        </mxCell>
        <mxCell id="6OuqwNL-lOStxpAFwUeE-17" value="本站截至目前拥有档案10册，标签10个" style="text;strokeColor=none;align=left;fillColor=none;html=1;verticalAlign=middle;whiteSpace=wrap;rounded=0;fontSize=24;" vertex="1" parent="1">
          <mxGeometry x="60" y="270" width="550" height="60" as="geometry" />
        </mxCell>
        <mxCell id="6OuqwNL-lOStxpAFwUeE-18" value="本站截至目前拥有用户100名，其中权限用户30名，审核10名" style="text;strokeColor=none;align=left;fillColor=none;html=1;verticalAlign=middle;whiteSpace=wrap;rounded=0;fontSize=24;" vertex="1" parent="1">
          <mxGeometry x="60" y="310" width="670" height="60" as="geometry" />
        </mxCell>
        <mxCell id="6OuqwNL-lOStxpAFwUeE-29" value="进行操作" style="text;strokeColor=none;align=left;fillColor=none;html=1;verticalAlign=middle;whiteSpace=wrap;rounded=0;fontSize=24;" vertex="1" parent="1">
          <mxGeometry x="60" y="390" width="570" height="60" as="geometry" />
        </mxCell>
        <mxCell id="6OuqwNL-lOStxpAFwUeE-32" value="用户" style="text;strokeColor=none;align=left;fillColor=none;html=1;verticalAlign=middle;whiteSpace=wrap;rounded=0;fontSize=24;" vertex="1" parent="1">
          <mxGeometry x="60" y="450" width="250" height="30" as="geometry" />
        </mxCell>
        <mxCell id="6OuqwNL-lOStxpAFwUeE-33" value="权限管理" style="html=1;shadow=0;dashed=0;shape=mxgraph.bootstrap.rrect;rSize=5;strokeColor=none;strokeWidth=1;fillColor=#0085FC;fontColor=#FFFFFF;whiteSpace=wrap;align=center;verticalAlign=middle;spacingLeft=0;fontStyle=0;fontSize=16;spacing=5;" vertex="1" parent="1">
          <mxGeometry x="60" y="490" width="80" height="40" as="geometry" />
        </mxCell>
        <mxCell id="6OuqwNL-lOStxpAFwUeE-34" value="任命审核" style="html=1;shadow=0;dashed=0;shape=mxgraph.bootstrap.rrect;rSize=5;strokeColor=none;strokeWidth=1;fillColor=#0085FC;fontColor=#FFFFFF;whiteSpace=wrap;align=center;verticalAlign=middle;spacingLeft=0;fontStyle=0;fontSize=16;spacing=5;" vertex="1" parent="1">
          <mxGeometry x="170" y="490" width="80" height="40" as="geometry" />
        </mxCell>
        <mxCell id="6OuqwNL-lOStxpAFwUeE-35" value="查询用户" style="html=1;shadow=0;dashed=0;shape=mxgraph.bootstrap.rrect;rSize=5;strokeColor=none;strokeWidth=1;fillColor=#0085FC;fontColor=#FFFFFF;whiteSpace=wrap;align=center;verticalAlign=middle;spacingLeft=0;fontStyle=0;fontSize=16;spacing=5;" vertex="1" parent="1">
          <mxGeometry x="280" y="490" width="80" height="40" as="geometry" />
        </mxCell>
        <mxCell id="6OuqwNL-lOStxpAFwUeE-36" value="封禁用户" style="html=1;shadow=0;dashed=0;shape=mxgraph.bootstrap.rrect;rSize=5;strokeColor=none;strokeWidth=1;fillColor=#0085FC;fontColor=#FFFFFF;whiteSpace=wrap;align=center;verticalAlign=middle;spacingLeft=0;fontStyle=0;fontSize=16;spacing=5;" vertex="1" parent="1">
          <mxGeometry x="390" y="490" width="80" height="40" as="geometry" />
        </mxCell>
        <mxCell id="6OuqwNL-lOStxpAFwUeE-37" value="档案" style="text;strokeColor=none;align=left;fillColor=none;html=1;verticalAlign=middle;whiteSpace=wrap;rounded=0;fontSize=24;" vertex="1" parent="1">
          <mxGeometry x="60" y="580" width="250" height="30" as="geometry" />
        </mxCell>
        <mxCell id="6OuqwNL-lOStxpAFwUeE-38" value="修改档案" style="html=1;shadow=0;dashed=0;shape=mxgraph.bootstrap.rrect;rSize=5;strokeColor=none;strokeWidth=1;fillColor=#0085FC;fontColor=#FFFFFF;whiteSpace=wrap;align=center;verticalAlign=middle;spacingLeft=0;fontStyle=0;fontSize=16;spacing=5;" vertex="1" parent="1">
          <mxGeometry x="60" y="620" width="80" height="40" as="geometry" />
        </mxCell>
      </root>
    </mxGraphModel>
  </diagram>
</mxfile>
